<svg xmlns="http://www.w3.org/2000/svg" x="0px" y="0px"
width="22" height="22"
viewBox="0 0 172 172"
style=" fill:#000000;"><g fill="none" fill-rule="nonzero" stroke="none" stroke-width="1" stroke-linecap="butt" stroke-linejoin="miter" stroke-miterlimit="10" stroke-dasharray="" stroke-dashoffset="0" font-family="none" font-weight="none" font-size="none" text-anchor="none" style="mix-blend-mode: normal"><path d="M0,172v-172h172v172z" fill="none"></path><g fill="#333333"><path d="M150.5,14.33333h-43c-3.95804,0 -7.16667,3.20863 -7.16667,7.16667v43c0,3.95804 3.20863,7.16667 7.16667,7.16667h7.16667v14.33333h14.33333v-14.33333h14.33333v14.33333h14.33333v-64.5c0,-3.95804 -3.20863,-7.16667 -7.16667,-7.16667zM129,57.33333h-14.33333v-28.66667h28.66667v28.66667z"></path><path d="M21.5,71.66667h43c3.95804,0 7.16667,-3.20863 7.16667,-7.16667v-43c0,-3.95804 -3.20863,-7.16667 -7.16667,-7.16667h-43c-3.95804,0 -7.16667,3.20863 -7.16667,7.16667v43c0,3.95804 3.20863,7.16667 7.16667,7.16667zM28.66667,28.66667h28.66667v28.66667h-28.66667z"></path><rect x="3" y="16" transform="scale(7.16667,7.16667)" width="2" height="2"></rect><rect x="3" y="20" transform="scale(7.16667,7.16667)" width="2" height="2"></rect><rect x="5" y="18" transform="scale(7.16667,7.16667)" width="2" height="2"></rect><path d="M64.5,114.66667v-28.66667h-14.33333v14.33333h-14.33333v14.33333h14.33333z"></path><rect x="3" y="12" transform="scale(7.16667,7.16667)" width="2" height="2"></rect><path d="M100.33333,107.5v7.16667h-7.16667v-14.33333h-14.33333v28.66667h21.5v21.5c0,3.95804 3.20863,7.16667 7.16667,7.16667h43c3.95804,0 7.16667,-3.20863 7.16667,-7.16667v-43c0,-3.95804 -3.20863,-7.16667 -7.16667,-7.16667h-35.83333v-14.33333h-14.33333zM143.33333,114.66667v28.66667h-28.66667v-28.66667z"></path><path d="M64.5,143.33333h-14.33333v14.33333h35.83333v-14.33333h-7.16667v-14.33333h-14.33333z"></path><rect x="11" y="4" transform="scale(7.16667,7.16667)" width="2" height="2"></rect><rect x="11" y="8" transform="scale(7.16667,7.16667)" width="2" height="4"></rect><rect x="5" y="5" transform="scale(7.16667,7.16667)" width="2" height="2"></rect><rect x="17" y="5" transform="scale(7.16667,7.16667)" width="2" height="2"></rect><rect x="17" y="17" transform="scale(7.16667,7.16667)" width="2" height="2"></rect></g></g></svg>