<svg xmlns="http://www.w3.org/2000/svg" x="0px" y="0px"
width="20" height="20"
viewBox="0 0 172 172"
style=" fill:#000000;"><g fill="none" fill-rule="nonzero" stroke="none" stroke-width="1" stroke-linecap="butt" stroke-linejoin="miter" stroke-miterlimit="10" stroke-dasharray="" stroke-dashoffset="0" font-family="none" font-weight="none" font-size="none" text-anchor="none" style="mix-blend-mode: normal"><path d="M0,172v-172h172v172z" fill="none"></path><g fill="#000000"><path d="M86,14.33333c-5.73333,0 -10.75,5.01667 -10.75,10.75v4.98307c-18.57541,4.75758 -32.25,21.5016 -32.25,41.60026v34.67155l-5.16504,15.49511h-9.16829v14.33333h44.94564c-2.55815,4.43083 -2.56057,9.88928 -0.00634,14.32238c2.55423,4.4331 7.27776,7.16858 12.39404,7.17762c5.12128,0.00095 9.85397,-2.73059 12.41503,-7.16551c2.56105,-4.43492 2.56131,-9.89933 0.00066,-14.33449h44.91764v-14.33333h-9.1683l-5.16504,-15.49511v-34.67155c0,-20.09866 -13.67459,-36.84268 -32.25,-41.60026v-4.98307c0,-5.73333 -5.01667,-10.75 -10.75,-10.75z"></path></g></g></svg>