<svg xmlns="http://www.w3.org/2000/svg" x="0px" y="0px"
width="20" height="20"
viewBox="0 0 172 172"
style=" fill:#000000;"><defs><linearGradient x1="50.826" y1="43.65933" x2="144.47283" y2="137.30617" gradientUnits="userSpaceOnUse" id="color-1_v5Up8zOtljVj_gr1"><stop offset="0" stop-color="#ffffff"></stop><stop offset="1" stop-color="#ffffff"></stop></linearGradient><linearGradient x1="7.90483" y1="57.49817" x2="152.6715" y2="125.00817" gradientUnits="userSpaceOnUse" id="color-2_v5Up8zOtljVj_gr2"><stop offset="0" stop-color="#ffffff"></stop><stop offset="1" stop-color="#ffffff"></stop></linearGradient><linearGradient x1="50.826" y1="43.65933" x2="144.47283" y2="137.30617" gradientUnits="userSpaceOnUse" id="color-3_v5Up8zOtljVj_gr3"><stop offset="0" stop-color="#ffffff"></stop><stop offset="1" stop-color="#ffffff"></stop></linearGradient><linearGradient x1="7.90483" y1="57.49817" x2="152.6715" y2="125.00817" gradientUnits="userSpaceOnUse" id="color-4_v5Up8zOtljVj_gr4"><stop offset="0" stop-color="#ffffff"></stop><stop offset="1" stop-color="#ffffff"></stop></linearGradient></defs><g transform="translate(8.858,8.858) scale(0.897,0.897)"><g fill="none" fill-rule="nonzero" stroke="none" stroke-width="none" stroke-linecap="butt" stroke-linejoin="none" stroke-miterlimit="10" stroke-dasharray="" stroke-dashoffset="0" font-family="none" font-weight="none" font-size="none" text-anchor="none" style="mix-blend-mode: normal"><g stroke="#575962" stroke-width="19" stroke-linejoin="round"><path d="M172,75.24923c0,1.98063 -1.6027,3.58333 -3.58333,3.58333h-4.54653l-21.90505,68.8427c-1.90365,5.97689 -7.39062,9.99064 -13.65796,9.99064h-84.61426c-6.26733,0 -11.75431,-4.01375 -13.65796,-9.98714l-21.90549,-68.8462h-4.54609c-1.98063,0 -3.58333,-1.6027 -3.58333,-3.58333c0,-1.98063 1.6027,-3.58333 3.58333,-3.58333h30.36473l38.34849,-55.77962c1.12679,-1.6307 3.35938,-2.04012 4.98307,-0.92383c1.6307,1.12329 2.04362,3.35238 0.92383,4.98307l-35.55776,51.72038h86.70862l-35.55776,-51.72038c-1.11979,-1.6307 -0.70687,-3.85978 0.92383,-4.98307c1.6342,-1.11629 3.86328,-0.70687 4.98307,0.92383l38.34849,55.77962h30.36473c1.98063,0 3.58333,1.6027 3.58333,3.58333z" fill="#303c42"></path><path d="M135.13436,145.50216c-0.95182,2.98844 -3.69531,4.99707 -6.82723,4.99707h-84.61426c-3.13192,0 -5.87541,-2.00863 -6.82723,-4.99357l-21.2148,-66.6731h140.69832z" fill="#e6e6e6"></path><path d="M128.30713,150.49924h-40.98962l-71.66667,-71.66667h140.69832l-21.2148,66.6696c-0.95182,2.98844 -3.69531,4.99707 -6.82723,4.99707z" fill="url(#color-1_v5Up8zOtljVj_gr1)"></path><path d="M172,75.24923c0,1.98063 -1.6027,3.58333 -3.58333,3.58333h-4.54653l-21.90505,68.8427c-1.90365,5.97689 -7.39062,9.99064 -13.65796,9.99064h-84.61426c-6.26733,0 -11.75431,-4.01375 -13.65796,-9.98714l-21.90549,-68.8462h-4.54609c-1.98063,0 -3.58333,-1.6027 -3.58333,-3.58333c0,-1.98063 1.6027,-3.58333 3.58333,-3.58333h30.36473l38.34849,-55.77962c1.12679,-1.6307 3.35938,-2.04012 4.98307,-0.92383c1.6307,1.12329 2.04362,3.35238 0.92383,4.98307l-35.55776,51.72038h86.70862l-35.55776,-51.72038c-1.11979,-1.6307 -0.70687,-3.85978 0.92383,-4.98307c1.6342,-1.11629 3.86328,-0.70687 4.98307,0.92383l38.34849,55.77962h30.36473c1.98063,0 3.58333,1.6027 3.58333,3.58333z" fill="url(#color-2_v5Up8zOtljVj_gr2)"></path></g><path d="M0,172v-172h172v172z" fill="none" stroke="none" stroke-width="1" stroke-linejoin="miter"></path><g stroke="none" stroke-width="1" stroke-linejoin="miter"><path d="M168.41667,71.66589h-30.36473l-38.34849,-55.77962c-1.11979,-1.6307 -3.34888,-2.04012 -4.98307,-0.92383c-1.6307,1.12329 -2.04362,3.35238 -0.92383,4.98307l35.55776,51.72038h-86.70862l35.55776,-51.72038c1.11979,-1.6307 0.70687,-3.85978 -0.92383,-4.98307c-1.6237,-1.11629 -3.85628,-0.70687 -4.98307,0.92383l-38.34849,55.77962h-30.36473c-1.98063,0 -3.58333,1.6027 -3.58333,3.58333c0,1.98063 1.6027,3.58333 3.58333,3.58333h4.54609l21.90549,68.8462c1.90365,5.97339 7.39062,9.98714 13.65796,9.98714h84.61426c6.26733,0 11.75431,-4.01375 13.65796,-9.99064l21.90505,-68.8427h4.54653c1.98063,0 3.58333,-1.6027 3.58333,-3.58333c0,-1.98063 -1.6027,-3.58333 -3.58333,-3.58333z" fill="#303c42"></path><path d="M135.13436,145.50216c-0.95182,2.98844 -3.69531,4.99707 -6.82723,4.99707h-84.61426c-3.13192,0 -5.87541,-2.00863 -6.82723,-4.99357l-21.2148,-66.6731h140.69832z" fill="#e6e6e6"></path><path d="M128.30713,150.49923c3.13192,0 5.87541,-2.00863 6.82723,-4.99707l21.2148,-66.6696h-140.69832l71.66667,71.66667h40.98962z" fill="url(#color-3_v5Up8zOtljVj_gr3)"></path><path d="M168.41667,71.66589h-30.36473l-38.34849,-55.77962c-1.11979,-1.6307 -3.34888,-2.04012 -4.98307,-0.92383c-1.6307,1.12329 -2.04362,3.35238 -0.92383,4.98307l35.55776,51.72038h-86.70862l35.55776,-51.72038c1.11979,-1.6307 0.70687,-3.85978 -0.92383,-4.98307c-1.6237,-1.11629 -3.85628,-0.70687 -4.98307,0.92383l-38.34849,55.77962h-30.36473c-1.98063,0 -3.58333,1.6027 -3.58333,3.58333c0,1.98063 1.6027,3.58333 3.58333,3.58333h4.54609l21.90549,68.8462c1.90365,5.97339 7.39062,9.98714 13.65796,9.98714h84.61426c6.26733,0 11.75431,-4.01375 13.65796,-9.99064l21.90505,-68.8427h4.54653c1.98063,0 3.58333,-1.6027 3.58333,-3.58333c0,-1.98063 -1.6027,-3.58333 -3.58333,-3.58333z" fill="url(#color-4_v5Up8zOtljVj_gr4)"></path></g><path d="" fill="none" stroke="none" stroke-width="1" stroke-linejoin="miter"></path><path d="" fill="none" stroke="none" stroke-width="1" stroke-linejoin="miter"></path><path d="" fill="none" stroke="none" stroke-width="1" stroke-linejoin="miter"></path><path d="" fill="none" stroke="none" stroke-width="1" stroke-linejoin="miter"></path></g></g></svg>